<?xml version="1.0" encoding="UTF-8"?>
<svg version="1.1" xmlns="http://www.w3.org/2000/svg" width="512" height="512">
<path d="M0 0 C3.2964914 2.41302432 6.54194464 4.89182777 9.78613281 7.37451172 C11.4104295 8.61528477 13.03845318 9.85119203 14.66992188 11.08251953 C16.25603345 12.28093597 17.83357122 13.49082418 19.40039062 14.71435547 C29.71391289 22.51178764 39.55393182 25.33902575 52.375 25.875 C54.7265625 26.00520833 57.078125 26.13541667 59.4296875 26.265625 C60.58597656 26.32322998 61.74226563 26.38083496 62.93359375 26.44018555 C66.64284473 26.63240235 70.34852654 26.85295087 74.0546875 27.09765625 C75.16569824 27.16992432 76.27670898 27.24219238 77.42138672 27.31665039 C89.25814888 28.50220397 98.6938122 34.08327068 106.61328125 42.79296875 C113.66827727 53.38276608 115.83293526 65.4587014 118.55224609 77.66674805 C121.85338068 92.37034532 125.50442065 103.6111475 137.29296875 113.671875 C140.43354143 116.45114286 143.33449387 119.44805906 146.2734375 122.4375 C148.31863451 124.44681636 150.42442025 126.28976747 152.625 128.125 C162.07912428 136.33615177 167.02280208 145.59826671 168.4375 158.0625 C168.98650734 170.34292742 164.17029086 179.81223939 158.65429688 190.37890625 C156.56536791 194.44365804 154.59306988 198.56321822 152.625 202.6875 C152.2439209 203.47261963 151.8628418 204.25773926 151.47021484 205.06665039 C144.90686696 218.83435566 146.11518461 231.45664004 148 246.1875 C151.89196846 276.96321778 151.89196846 276.96321778 142.8125 289.9375 C141.73829121 291.19293228 140.63297892 292.422339 139.5 293.625 C138.94441406 294.26695312 138.38882812 294.90890625 137.81640625 295.5703125 C130.38785044 303.19317661 120.12833819 306.58063412 110.5 310.625 C91.94165893 318.4961859 81.99855843 325.77821113 71.0625 343 C53.30036772 370.92490807 53.30036772 370.92490807 36.03125 375.2421875 C24.2468849 377.02439086 13.89621573 374.30004566 2.74902344 370.74853516 C0.72568905 370.1040829 -1.30040425 369.46824271 -3.32885742 368.84008789 C-5.3329193 368.21792056 -7.33117052 367.57655505 -9.3215332 366.91186523 C-24.56876287 362.18883932 -37.48853198 364.81419715 -52.1875 369.5625 C-54.45241082 370.2699372 -56.71919602 370.97109452 -58.98628235 371.67152405 C-60.37929527 372.10444919 -61.77069045 372.54262883 -63.16007996 372.98704529 C-75.46104036 376.90286366 -87.23993108 376.96834502 -99.0234375 371.44140625 C-110.28041279 365.32800275 -116.48970553 355.35995682 -122.95703125 344.73828125 C-134.43808922 325.98043413 -146.15844158 317.49040743 -166.3671875 309.2109375 C-186.85926544 300.74624465 -186.85926544 300.74624465 -193.5 292.625 C-194.09554687 291.90699219 -194.69109375 291.18898438 -195.3046875 290.44921875 C-205.15535524 277.18145335 -202.95550612 261.57271518 -201 246.1875 C-198.35103837 225.21151035 -200.37090057 211.76497185 -210.5625 192.9375 C-218.62684813 177.98225379 -224.22110936 164.95836951 -219.63671875 147.76171875 C-215.41452121 136.11077501 -206.72226768 128.34659149 -197.578125 120.48046875 C-194.43762237 117.67644855 -191.49234569 114.69035876 -188.5390625 111.69140625 C-186.94876672 110.07978466 -185.32445771 108.50170404 -183.6875 106.9375 C-176.01052525 98.82184098 -174.08395224 88.36121518 -171.5703125 77.7421875 C-171.41021194 77.06903503 -171.25011139 76.39588257 -171.0851593 75.70233154 C-170.43102348 72.94115728 -169.77939073 70.17973261 -169.15087891 67.41259766 C-165.73811662 52.46729435 -160.72596176 40.83583675 -147.359375 32.25 C-137.91007984 27.19053488 -127.69736029 27.11974112 -117.25 26.625 C-94.83919669 25.55328784 -81.06177728 21.61678607 -63.32446289 7.62646484 C-43.47372424 -7.99323388 -22.47053898 -15.99808138 0 0 Z M-125.125 98.375 C-147.36969752 123.95238686 -158.463773 157.86188534 -156.5 191.625 C-154.04776395 225.34530993 -138.89948804 257.21174927 -113.875 280.0625 C-85.99463915 303.62413829 -51.93343511 315.99382988 -15.30615234 313.22631836 C11.74275203 310.64186831 38.14285435 299.68697727 58.5 281.625 C59.22703125 281.01785156 59.9540625 280.41070312 60.703125 279.78515625 C85.02839696 259.31293309 99.42956103 227.69152914 103.25 196.5 C103.36024761 194.8766039 103.44078092 193.25105736 103.5 191.625 C103.5515625 190.49707031 103.603125 189.36914062 103.65625 188.20703125 C104.50216722 153.0662199 92.14743547 119.62333804 67.90429688 94.0715332 C66.44913501 92.57576763 64.97968633 91.09647725 63.5 89.625 C62.69046875 88.81546875 61.8809375 88.0059375 61.046875 87.171875 C36.07527563 63.52327427 1.86434035 52.47253307 -32.08984375 53.34765625 C-68.73610476 54.91607197 -100.26545741 72.03000143 -125.125 98.375 Z " fill="#000000" transform="translate(282.5,24.375)"/>
<path d="M0 0 C3.42728579 2.56237021 6.74721087 5.21995897 10 8 C13.91911236 6.64977578 16.51624484 4.90636112 19.625 2.1875 C30.16143469 -6.40350731 43.62521537 -10.75653318 57.25 -10.28125 C70.01631975 -8.97560366 80.74952704 -3.95965023 89 6 C97.3979665 17.16677835 99.13899857 30.34474345 98 44 C93.80896004 67.93437276 75.33257068 88.92884171 57 104 C56.16726563 104.72058594 55.33453125 105.44117188 54.4765625 106.18359375 C43.54866882 115.53966711 31.86506268 124.05528348 19.75 131.8125 C18.77546875 132.43769531 17.8009375 133.06289063 16.796875 133.70703125 C13.42626031 135.26523441 11.67787635 135.57538741 8 135 C5.25135846 133.7225107 2.80905604 132.08574423 0.3125 130.375 C-0.41936523 129.88572021 -1.15123047 129.39644043 -1.90527344 128.89233398 C-4.28632998 127.28373648 -6.64583377 125.64767832 -9 124 C-10.20487061 123.15767822 -10.20487061 123.15767822 -11.43408203 122.29833984 C-20.9232385 115.60646617 -29.91678275 108.65037651 -38.28515625 100.59375 C-40.50412304 98.4737587 -42.75584731 96.50739798 -45.125 94.5625 C-59.01545371 82.45587298 -73.79515068 62.64935051 -76 44 C-76.56007768 34.62870021 -76.36032689 25.89756119 -73 17 C-72.74476563 16.30777344 -72.48953125 15.61554688 -72.2265625 14.90234375 C-67.99217812 5.13218162 -59.64208962 -2.71619772 -50 -7 C-33.08218947 -12.96432194 -14.78985208 -10.01089528 0 0 Z " fill="#000000" transform="translate(245,155)"/>
<path d="M0 0 C7.96075834 3.20964262 11.47808284 10.03992451 15.875 17 C17.38665305 19.35843771 18.90648832 21.71150536 20.4296875 24.0625 C20.80403931 24.64123871 21.17839111 25.21997742 21.56408691 25.81625366 C31.78824603 41.49576725 42.64622378 53.29600984 61.375 58.375 C70.07969471 59.9708607 79.31717294 59.39505576 88 58 C86.60235764 62.48053933 84.85225266 66.62874721 82.83203125 70.86328125 C82.52023926 71.5203154 82.20844727 72.17734955 81.88720703 72.85429382 C81.21518796 74.27028525 80.5417733 75.68561503 79.86709595 77.1003418 C78.05932532 80.89238617 76.26306364 84.6898541 74.46875 88.48828125 C73.91463188 89.66126266 73.91463188 89.66126266 73.34931946 90.85794067 C68.7781389 100.55917351 64.36341021 110.33135937 59.9621582 120.1105957 C56.78781479 127.15144813 53.53427764 134.13144101 50 141 C47.375 141.5625 47.375 141.5625 44 141 C38.20393357 134.45957039 34.35259297 125.78358949 30.0625 118.1875 C28.7003945 115.78448842 27.33652183 113.38248169 25.97265625 110.98046875 C25.64286774 110.39884979 25.31307922 109.81723083 24.97329712 109.21798706 C21.69817917 103.44964188 18.35734667 97.72082413 15 92 C14.34711502 92.11275269 13.69423004 92.22550537 13.02156067 92.3416748 C6.22543163 93.51452041 -0.57167749 94.6815522 -7.36938477 95.84521484 C-9.90609929 96.28024703 -12.44256027 96.71676036 -14.97875977 97.15478516 C-18.62450549 97.78417403 -22.27113018 98.40822871 -25.91796875 99.03125 C-27.05147263 99.22811401 -28.1849765 99.42497803 -29.35282898 99.62780762 C-30.41355118 99.80799438 -31.47427338 99.98818115 -32.56713867 100.17382812 C-33.49757492 100.33371216 -34.42801117 100.49359619 -35.38664246 100.6583252 C-38.01342102 101.00175469 -40.36070354 101.27616057 -43 101 C-45 98 -45 98 -44.8371582 95.77807617 C-43.75891204 92.19995919 -42.22856388 88.9051961 -40.60546875 85.55078125 C-40.26222565 84.82961624 -39.91898254 84.10845123 -39.56533813 83.36543274 C-38.82800771 81.81768437 -38.08818066 80.27112335 -37.34609985 78.72564697 C-35.77866686 75.46097698 -34.22339257 72.19056939 -32.66770935 68.92028809 C-31.88358779 67.27198291 -31.09888856 65.62395242 -30.31361389 63.97619629 C-27.09407538 57.21617395 -23.93645447 50.42979248 -20.8125 43.625 C-16.64872703 34.57224543 -12.47233778 25.52558458 -8.26791382 16.49163818 C-7.63463019 15.1300794 -7.00215383 13.76814484 -6.37051392 12.40582275 C-5.49519533 10.51826489 -4.61711057 8.63201906 -3.73828125 6.74609375 C-3.23337158 5.65997803 -2.72846191 4.5738623 -2.20825195 3.45483398 C-1 1 -1 1 0 0 Z " fill="#000000" transform="translate(129,355)"/>
<path d="M0 0 C3.30585811 3.06552065 4.93523357 6.65346227 6.80859375 10.69140625 C7.17129364 11.45997452 7.53399353 12.22854279 7.90768433 13.020401 C9.09064739 15.5315008 10.26420019 18.04687245 11.4375 20.5625 C12.25563531 22.30474468 13.0742419 24.04676813 13.89331055 25.78857422 C19.34779537 37.40274806 24.75775411 49.03793732 30.09375 60.70703125 C31.93152537 64.71433125 33.80589263 68.70140196 35.7146759 72.6751709 C36.95399452 75.25699933 38.18349887 77.84345209 39.41268921 80.43011475 C40.00623069 81.67179105 40.60462427 82.91116116 41.2081604 84.14801025 C42.04299791 85.85965724 42.85979463 87.58006776 43.67578125 89.30078125 C44.14927002 90.28216064 44.62275879 91.26354004 45.1105957 92.2746582 C46.11307221 95.34647959 45.97752898 96.95276667 45 100 C44.67 100.33 44.34 100.66 44 101 C36.48988766 100.79968751 29.02883341 99.44347593 21.64453125 98.15234375 C20.61688156 97.97619034 19.58923187 97.80003693 18.53044128 97.61854553 C15.29041954 97.06222055 12.05146023 96.49996862 8.8125 95.9375 C6.5983752 95.55624602 4.38418304 95.17538305 2.16992188 94.79492188 C-3.22083831 93.86779531 -8.61074214 92.93581769 -14 92 C-14.63276855 93.1152002 -14.63276855 93.1152002 -15.27832031 94.25292969 C-29.54812165 119.3780004 -29.54812165 119.3780004 -36.9375 131.6875 C-37.43862305 132.52313477 -37.93974609 133.35876953 -38.45605469 134.21972656 C-41.86344926 139.86344926 -41.86344926 139.86344926 -43 141 C-44.99958364 141.04080783 -47.00045254 141.04254356 -49 141 C-58.94176194 120.21883285 -68.82854774 99.42116535 -78.27758789 78.41040039 C-81.71623496 70.75405368 -81.71623496 70.75405368 -85.41015625 63.21875 C-87 60 -87 60 -87 58 C-85.48986328 58.23976563 -85.48986328 58.23976563 -83.94921875 58.484375 C-66.49077651 60.76381553 -51.70879649 57.56394523 -37.42578125 47.1171875 C-29.85318938 40.76598141 -24.93222574 32.46630597 -19.58984375 24.2578125 C-18.43034269 22.48171497 -17.27075754 20.70567241 -16.11108398 18.9296875 C-15.32324951 17.71818918 -14.53911305 16.50427865 -13.75854492 15.28808594 C-12.60899069 13.49983737 -11.44464273 11.7220131 -10.27734375 9.9453125 C-9.26015259 8.37547607 -9.26015259 8.37547607 -8.22241211 6.77392578 C-5.69797374 3.62302291 -3.44117718 2.05062555 0 0 Z " fill="#000000" transform="translate(382,355)"/>
</svg>
