<?xml version="1.0" encoding="UTF-8"?>
<svg version="1.1" xmlns="http://www.w3.org/2000/svg" width="512" height="512">
<path d="M0 0 C0.81897766 0.00215515 1.63795532 0.0043103 2.48175049 0.00653076 C14.85419217 0.05876318 26.83930217 0.50686913 38.9375 3.3125 C39.85096191 3.52181152 40.76442383 3.73112305 41.70556641 3.94677734 C88.50368945 14.93294579 134.74306837 38.79731061 168.33984375 73.71484375 C170.08521294 75.46021294 171.92593099 77.03378426 173.8125 78.625 C178.63885423 82.78982691 182.74084946 87.52802075 186.9375 92.3125 C187.56140625 92.98667969 188.1853125 93.66085938 188.828125 94.35546875 C218.19427922 126.25106063 239.43723959 166.36323481 249.9375 208.3125 C250.23398437 209.46105469 250.53046875 210.60960937 250.8359375 211.79296875 C260.99293211 253.07461516 256.49588246 296.63090663 235.08203125 333.5078125 C231.77472874 338.86666468 228.17720425 343.65916606 223.9375 348.3125 C221.9375 347.3125 221.9375 347.3125 220.7199707 344.1640625 C220.26049237 342.75755565 219.80885908 341.3484721 219.36328125 339.9375 C219.11636032 339.18017578 218.86943939 338.42285156 218.61503601 337.64257812 C217.81953052 335.20147229 217.03372998 332.75740988 216.25 330.3125 C211.36180336 315.07712797 206.30095041 299.79268783 198.625 285.6875 C198.25383057 284.99712646 197.88266113 284.30675293 197.50024414 283.59545898 C189.18061591 268.4170329 178.74978783 254.93359098 166.9375 242.3125 C166.06609375 241.37535156 165.1946875 240.43820312 164.296875 239.47265625 C147.81957655 222.15772355 127.45632069 209.4089284 105.9375 199.3125 C104.31714844 198.52939453 104.31714844 198.52939453 102.6640625 197.73046875 C87.68141489 190.8558641 71.40117449 187.11205645 55.4375 183.25 C30.07871338 177.05986769 5.6184629 165.67628531 -14.0625 148.3125 C-14.92617187 147.55839844 -15.78984375 146.80429687 -16.6796875 146.02734375 C-19.17100105 143.81999451 -21.62227501 141.57607571 -24.0625 139.3125 C-24.70445313 138.73628906 -25.34640625 138.16007813 -26.0078125 137.56640625 C-47.61279959 117.27218198 -60.42504371 89.31266316 -69.75 61.75 C-70.39287598 59.87791005 -71.03675272 58.00616347 -71.68164062 56.13476562 C-72.92200421 52.5300345 -74.1488536 48.92115961 -75.36474609 45.30810547 C-76.44087438 42.11583897 -77.55052169 38.9398844 -78.70166016 35.77392578 C-78.94721146 35.08387955 -79.19276276 34.39383331 -79.445755 33.68287659 C-80.09481871 31.86211082 -80.75742698 30.04618894 -81.42114258 28.23071289 C-82.0625 25.3125 -82.0625 25.3125 -81.42358398 23.06201172 C-79.84186886 21.02890489 -78.48045235 20.10757097 -76.203125 18.91015625 C-75.42428955 18.49717285 -74.6454541 18.08418945 -73.84301758 17.65869141 C-73.00794678 17.23507324 -72.17287598 16.81145508 -71.3125 16.375 C-70.45358154 15.93333496 -69.59466309 15.49166992 -68.7097168 15.03662109 C-47.08809936 4.12809097 -24.05680548 -0.11381714 0 0 Z " fill="#000000" transform="translate(138.0625,118.6875)"/>
<path d="M0 0 C0.66 0 1.32 0 2 0 C2.37697021 1.10174561 2.75394043 2.20349121 3.14233398 3.33862305 C16.12039038 41.1914174 29.25120143 75.60934623 56 106 C56.64839844 106.77085937 57.29679687 107.54171875 57.96484375 108.3359375 C61.94646957 113.04888235 66.26865934 117.05049928 71 121 C71.93199219 121.79664063 72.86398438 122.59328125 73.82421875 123.4140625 C101.35692003 146.75164028 132.4142423 159.6299199 167.25 168 C179.64452425 170.98295223 191.44624727 174.52431231 203 180 C203.7317041 180.34643555 204.4634082 180.69287109 205.21728516 181.04980469 C219.64806981 188.02431171 232.9864543 196.68040506 244.6171875 207.73828125 C246.72378451 209.73782169 248.88657892 211.58970535 251.125 213.4375 C256.06652324 217.7449785 259.98800118 222.8407344 264 228 C264.7321875 228.91652344 265.464375 229.83304688 266.21875 230.77734375 C270.58683278 236.38356268 274.47460778 242.15787152 278.125 248.25 C278.50841553 248.87986816 278.89183105 249.50973633 279.28686523 250.15869141 C287.37917781 264.00345293 292.39141911 279.29436037 297.41894531 294.44018555 C298.5124384 297.72486294 299.62678288 301.0020043 300.7421875 304.27929688 C301.44397125 306.37718212 302.14453812 308.47547492 302.84375 310.57421875 C303.17693237 311.54816086 303.51011475 312.52210297 303.85339355 313.52555847 C304.30011414 314.88902153 304.30011414 314.88902153 304.75585938 316.2800293 C305.02120483 317.07338181 305.28655029 317.86673431 305.55993652 318.68412781 C306.08875256 321.46706803 305.85970448 323.30750327 305 326 C302.91710294 327.5827578 301.10212823 328.74198458 298.8125 329.9375 C298.18029541 330.27958496 297.54809082 330.62166992 296.89672852 330.97412109 C287.08352603 336.1894783 277.14702798 340.12768758 266.5 343.25 C265.67040771 343.49637207 264.84081543 343.74274414 263.98608398 343.99658203 C250.91954429 347.66398247 237.91341897 348.37717137 224.4375 348.3125 C223.25170853 348.30976578 223.25170853 348.30976578 222.04196167 348.30697632 C209.4768248 348.25831417 197.33072784 347.57619154 185 345 C184.1661377 344.83371094 183.33227539 344.66742188 182.47314453 344.49609375 C126.87959812 333.19531639 73.78554674 301.06200766 36.8046875 258.08203125 C35.59768997 256.68954276 34.37343891 255.31183144 33.1328125 253.94921875 C-2.30096276 215.02898769 -30.85801489 158.58277189 -31.203125 105.046875 C-31.21018463 104.31305099 -31.21724426 103.57922699 -31.22451782 102.82316589 C-31.50045281 65.69716659 -25.41949333 28.94997851 0 0 Z " fill="#000000" transform="translate(31,164)"/>
<path d="M0 0 C24.01140967 41.08618989 29.17377356 86.40299917 17.64453125 132.6015625 C16.26865214 137.79259272 14.68381629 142.9014657 13 148 C12.74911621 148.7729541 12.49823242 149.5459082 12.23974609 150.34228516 C-0.82131673 189.94544349 -24.04417284 223.70341804 -52.25 253.9375 C-53.22428955 254.98478271 -53.22428955 254.98478271 -54.21826172 256.05322266 C-65.54901143 268.05742815 -65.54901143 268.05742815 -72 271 C-72.27094482 270.04299194 -72.27094482 270.04299194 -72.54736328 269.06665039 C-82.67432961 233.44314313 -96.09677064 200.76470829 -117 170 C-117.60811523 169.10039551 -117.60811523 169.10039551 -118.22851562 168.18261719 C-126.17017276 156.51708973 -134.91532562 145.12180204 -144.8203125 135.0546875 C-145.42770264 134.43271484 -146.03509277 133.81074219 -146.66088867 133.16992188 C-147.81458163 132.00433844 -148.98594063 130.85588651 -150.17700195 129.72851562 C-152.93407189 126.95214148 -153.9948297 125.56420868 -154.03125 121.58984375 C-152.91042963 117.68820012 -151.63512929 113.92569546 -150.0625 110.1875 C-149.75747559 109.45829346 -149.45245117 108.72908691 -149.13818359 107.9777832 C-143.4016132 94.65069878 -136.21460752 82.22561307 -127 71 C-126.55430664 70.44892578 -126.10861328 69.89785156 -125.64941406 69.33007812 C-112.25999439 52.84372337 -96.76103409 39.30215404 -78.25 28.8125 C-77.60909424 28.44495605 -76.96818848 28.07741211 -76.30786133 27.69873047 C-61.27824999 19.48050665 -44.82935755 14.00150071 -28.65087891 8.56054688 C-25.44515984 7.48154148 -22.24392851 6.38990933 -19.04296875 5.296875 C-16.99764381 4.60343482 -14.95207999 3.91069874 -12.90625 3.21875 C-11.4767804 2.73142395 -11.4767804 2.73142395 -10.01843262 2.23425293 C-9.13901001 1.93974243 -8.2595874 1.64523193 -7.35351562 1.34179688 C-6.5825354 1.08168823 -5.81155518 0.82157959 -5.01721191 0.55358887 C-3 0 -3 0 0 0 Z " fill="#000000" transform="translate(489,56)"/>
<path d="M0 0 C1.59799067 1.35606379 3.16015246 2.75425792 4.7109375 4.1640625 C2.21712564 5.82660374 0.55086733 6.67431131 -2.21191406 7.59350586 C-2.99913345 7.85857941 -3.78635284 8.12365295 -4.59742737 8.39675903 C-5.87564613 8.82104691 -5.87564613 8.82104691 -7.1796875 9.25390625 C-9.01227003 9.8731967 -10.84453349 10.49343191 -12.67651367 11.11450195 C-14.11394424 11.60063461 -14.11394424 11.60063461 -15.58041382 12.09658813 C-49.15147224 23.49978492 -78.33301545 37.62849564 -104.2890625 62.1640625 C-105.09730469 62.91945313 -105.90554688 63.67484375 -106.73828125 64.453125 C-113.67204019 71.13652844 -119.59743521 78.42029544 -125.2890625 86.1640625 C-125.70655762 86.73189453 -126.12405273 87.29972656 -126.55419922 87.88476562 C-136.15728897 101.15615186 -144.08251979 116.01589046 -150.2890625 131.1640625 C-154.94649093 128.83534829 -158.66075734 126.07321523 -162.6015625 122.6640625 C-175.25235185 111.82401264 -189.83300483 103.34942258 -204.2890625 95.1640625 C-204.88686523 94.81923828 -205.48466797 94.47441406 -206.10058594 94.11914062 C-227.97950102 81.54336086 -252.01804744 73.66507226 -276.2890625 67.1640625 C-275.70082105 63.63019829 -274.42016761 61.87800461 -271.97265625 59.30078125 C-270.94881836 58.21700195 -270.94881836 58.21700195 -269.90429688 57.11132812 C-269.18564453 56.36560547 -268.46699219 55.61988281 -267.7265625 54.8515625 C-267.03498047 54.11744141 -266.34339844 53.38332031 -265.63085938 52.62695312 C-261.07835688 47.84534054 -256.30678419 43.44937288 -251.2890625 39.1640625 C-249.91233937 37.91596057 -248.53698117 36.66634815 -247.1640625 35.4140625 C-186.3229743 -18.48264255 -85.88873075 -53.74354141 0 0 Z " fill="#000000" transform="translate(462.2890625,27.8359375)"/>
</svg>
