<?xml version="1.0" encoding="UTF-8"?>
<svg version="1.1" xmlns="http://www.w3.org/2000/svg" width="512" height="512">
<path d="M0 0 C1.06458215 -0.00551503 1.06458215 -0.00551503 2.15067101 -0.01114148 C4.52322494 -0.02213341 6.89573501 -0.02601454 9.26831055 -0.02983093 C10.97207273 -0.03609914 12.67583355 -0.04274625 14.3795929 -0.04974365 C19.97139541 -0.07074967 25.56319808 -0.08114503 31.1550293 -0.09111023 C33.08420831 -0.09515953 35.01338719 -0.0992765 36.94256592 -0.10346031 C46.01040762 -0.12250694 55.07824123 -0.13673726 64.14609909 -0.14507228 C74.59128836 -0.15483327 85.03626508 -0.18112527 95.48137951 -0.22157317 C103.56824256 -0.25180701 111.65504495 -0.26654816 119.74196339 -0.26985329 C124.56526443 -0.2721961 129.38833828 -0.28105548 134.21157837 -0.30631447 C138.75561009 -0.32972676 143.29926715 -0.33377598 147.84334373 -0.32355309 C149.50205932 -0.32306075 151.16079418 -0.3292911 152.81945229 -0.34310913 C171.59278747 -0.49062962 187.8584433 4.79032516 201.72973633 17.81733704 C211.5864867 27.58297459 219.1221962 41.85599056 220.0997982 55.82269382 C220.10314989 57.08634738 220.10650158 58.35000093 220.10995483 59.65194702 C220.11448595 60.3628206 220.11901706 61.07369417 220.12368548 61.80610937 C220.13624577 64.16473759 220.13471457 66.52313241 220.13305664 68.88179016 C220.13904733 70.5827514 220.14585412 72.28370992 220.15341187 73.98466492 C220.17102889 78.590438 220.17576557 83.19613668 220.17704344 87.8019402 C220.17846859 90.68595536 220.18274519 93.56995183 220.18803787 96.45396233 C220.20652739 106.53424649 220.21471026 116.61447788 220.21313477 126.69477844 C220.21193524 136.05940524 220.23300319 145.42380087 220.26462209 154.78836924 C220.29086974 162.85240345 220.30149844 170.91636258 220.30022395 178.98043913 C220.29971659 183.78586077 220.30527284 188.59107705 220.32658005 193.39645576 C220.3461048 197.92331499 220.34599078 202.44977605 220.33154678 206.97665024 C220.32947476 208.62645876 220.33406218 210.27629314 220.3462677 211.92605782 C220.53583256 239.35297395 209.43071504 260.21439377 190.44018555 279.63545227 C189.22176204 280.87013444 188.0017113 282.10321295 186.7800293 283.33467102 C186.21461426 283.90492004 185.64919922 284.47516907 185.06665039 285.06269836 C182.12342323 287.99406792 179.12132779 290.80174761 175.97143555 293.51045227 C171.36318358 297.49658191 167.11231423 301.80452287 162.8425293 306.14717102 C157.99612526 311.0762782 153.11255311 315.83689313 147.86987305 320.34248352 C144.02254873 323.76726933 140.45238244 327.47571628 136.8425293 331.14717102 C131.98606584 336.08650929 127.09231153 340.85868243 121.83862305 345.37373352 C118.17457441 348.62907223 114.77547886 352.1516905 111.3425293 355.64717102 C107.29304466 359.77041676 103.25893981 363.84728802 98.8737793 367.61592102 C94.29074269 371.55904494 90.07912841 375.838275 85.8425293 380.14717102 C80.99612526 385.0762782 76.11255311 389.83689313 70.86987305 394.34248352 C67.02254873 397.76726933 63.45238244 401.47571628 59.8425293 405.14717102 C54.99612526 410.0762782 50.11255311 414.83689313 44.86987305 419.34248352 C41.02254873 422.76726933 37.45238244 426.47571628 33.8425293 430.14717102 C28.99612526 435.0762782 24.11255311 439.83689313 18.86987305 444.34248352 C15.02254873 447.76726933 11.45238244 451.47571628 7.8425293 455.14717102 C2.99612526 460.0762782 -1.88744689 464.83689313 -7.13012695 469.34248352 C-10.97745127 472.76726933 -14.54761756 476.47571628 -18.1574707 480.14717102 C-23.6391473 485.72239159 -29.19198417 491.08998879 -35.1574707 496.14717102 C-35.92575195 496.80846008 -36.6940332 497.46974915 -37.4855957 498.15107727 C-49.5352667 507.92306655 -63.00451223 512.74997877 -78.4699707 512.58467102 C-79.97382324 512.57331116 -79.97382324 512.57331116 -81.50805664 512.5617218 C-107.39196593 511.98995534 -123.77192117 495.83749992 -141.03295898 478.56221008 C-142.49739894 477.10376623 -143.96224406 475.64572912 -145.42745972 474.18806458 C-149.3784098 470.25466719 -153.32296079 466.31491421 -157.26578379 462.37337208 C-159.73539783 459.9051858 -162.2064332 457.4384317 -164.6779747 454.9721756 C-173.31697935 446.35163262 -181.95084449 437.72598089 -190.57983398 429.09541321 C-198.59766455 421.07638089 -206.62658834 413.06857631 -214.6607877 405.06594682 C-221.58207314 398.17088185 -228.49555501 391.26805712 -235.40310466 384.35923171 C-239.51835724 380.24347139 -243.63659358 376.13081466 -247.76272964 372.02596283 C-251.64427388 368.16389945 -255.51594055 364.29219152 -259.38051224 360.41314697 C-260.79230155 358.99928098 -262.20744693 357.58875608 -263.6263504 356.18202972 C-278.92504085 341.00606581 -292.1075575 324.66224942 -292.58862305 302.07759094 C-292.6345328 280.88317788 -286.7693548 266.64040685 -272.1574707 251.14717102 C-271.34536133 250.24482727 -270.53325195 249.34248352 -269.6965332 248.41279602 C-263.64849099 241.69274911 -257.35542828 235.26331088 -250.90332031 228.92988586 C-247.72096114 225.7893841 -244.65067739 222.61672017 -241.7355957 219.22529602 C-237.06591391 213.80677762 -231.92651781 208.8697576 -226.8293457 203.85810852 C-223.3161567 200.38076838 -219.88021806 196.89714203 -216.6574707 193.14717102 C-212.01945058 187.75039645 -206.89994168 182.84362738 -201.8293457 177.85810852 C-198.3161567 174.38076838 -194.88021806 170.89714203 -191.6574707 167.14717102 C-187.01945058 161.75039645 -181.89994168 156.84362738 -176.8293457 151.85810852 C-173.3161567 148.38076838 -169.88021806 144.89714203 -166.6574707 141.14717102 C-162.01945058 135.75039645 -156.89994168 130.84362738 -151.8293457 125.85810852 C-148.3161567 122.38076838 -144.88021806 118.89714203 -141.6574707 115.14717102 C-137.01945058 109.75039645 -131.89994168 104.84362738 -126.8293457 99.85810852 C-123.3161567 96.38076838 -119.88021806 92.89714203 -116.6574707 89.14717102 C-112.01945058 83.75039645 -106.89994168 78.84362738 -101.8293457 73.85810852 C-98.3161567 70.38076838 -94.88021806 66.89714203 -91.6574707 63.14717102 C-87.01945058 57.75039645 -81.89994168 52.84362738 -76.8293457 47.85810852 C-72.65035572 43.7217613 -68.65853134 39.51082286 -64.82397461 35.0539093 C-48.21494195 16.05060647 -26.27844231 0.08849406 0 0 Z M-35.78833008 68.0226593 C-36.34842773 68.67347473 -36.90852539 69.32429016 -37.4855957 69.99482727 C-42.20028995 75.42530728 -47.36074767 80.39737287 -52.4855957 85.43623352 C-56.6339834 89.54229073 -60.58047047 93.72527271 -64.3840332 98.15107727 C-68.31461135 102.5751421 -72.62084171 106.64697546 -76.84106445 110.79170227 C-80.2262878 114.14019625 -83.52192329 117.50377771 -86.6262207 121.11592102 C-91.27693269 126.52137713 -96.40436566 131.44025902 -101.4855957 136.43623352 C-104.99878471 139.91357366 -108.43472334 143.39720002 -111.6574707 147.14717102 C-116.29549083 152.54394559 -121.41499973 157.45071466 -126.4855957 162.43623352 C-129.99878471 165.91357366 -133.43472334 169.39720002 -136.6574707 173.14717102 C-141.29549083 178.54394559 -146.41499973 183.45071466 -151.4855957 188.43623352 C-154.99878471 191.91357366 -158.43472334 195.39720002 -161.6574707 199.14717102 C-166.29549083 204.54394559 -171.41499973 209.45071466 -176.4855957 214.43623352 C-180.6339834 218.54229073 -184.58047047 222.72527271 -188.3840332 227.15107727 C-192.31461135 231.5751421 -196.62084171 235.64697546 -200.84106445 239.79170227 C-204.2262878 243.14019625 -207.52192329 246.50377771 -210.6262207 250.11592102 C-215.27693269 255.52137713 -220.40436566 260.44025902 -225.4855957 265.43623352 C-229.71385066 269.62134302 -233.76755177 273.87820861 -237.64331055 278.39228821 C-239.52660082 280.5749858 -241.5018757 282.66603328 -243.4699707 284.77217102 C-247.42870933 289.24393768 -248.91703979 292.55051716 -249.4699707 298.52217102 C-248.76836736 306.66076976 -245.56934757 311.47658676 -239.93490601 317.01138306 C-238.98503498 317.97401236 -238.98503498 317.97401236 -238.01597464 318.95608872 C-235.90216721 321.09208716 -233.7710373 323.20988102 -231.6394043 325.32807922 C-230.11560707 326.86029319 -228.59286741 328.39355954 -227.07110596 329.92779541 C-222.94207111 334.08386686 -218.79732528 338.22392604 -214.64873457 342.36046624 C-211.18462713 345.81743881 -207.72836757 349.28220367 -204.27209723 352.74700898 C-196.11767514 360.92137925 -187.95057164 369.08292168 -179.77514648 377.23628235 C-171.34530274 385.64376082 -162.9356353 394.0710322 -154.53589761 402.50858051 C-147.31866269 409.75705767 -140.08981849 416.99380693 -132.85139716 424.22112721 C-128.53039711 428.53564263 -124.21374457 432.85428433 -119.90790939 437.18393898 C-115.85838355 441.25472318 -111.79450162 445.31061056 -107.71918488 449.35556984 C-106.22773072 450.84069913 -104.74134392 452.33093781 -103.26050949 453.82665634 C-101.23458602 455.87128147 -99.19096556 457.89644439 -97.14193726 459.9178772 C-96.56321125 460.51066965 -95.98448525 461.1034621 -95.3882221 461.71421796 C-90.66769364 466.30793465 -85.42408616 468.98248299 -78.74554479 469.24026948 C-69.09512668 468.82250239 -63.17032607 462.48838055 -56.8449707 455.84248352 C-54.75103398 453.74245977 -52.65201926 451.81722572 -50.4074707 449.88935852 C-45.75818212 445.86702606 -41.4656284 441.52884676 -37.1574707 437.14717102 C-32.31106666 432.21806384 -27.42749452 427.45744891 -22.18481445 422.95185852 C-18.33749014 419.52707271 -14.76732385 415.81862576 -11.1574707 412.14717102 C-6.30100724 407.20783276 -1.40725294 402.43565962 3.84643555 397.92060852 C7.51048418 394.66526981 10.90957973 391.14265154 14.3425293 387.64717102 C18.39201393 383.52392528 22.42611878 379.44705402 26.8112793 375.67842102 C31.3943159 371.7352971 35.60593019 367.45606704 39.8425293 363.14717102 C44.68893334 358.21806384 49.57250548 353.45744891 54.81518555 348.95185852 C58.66250986 345.52707271 62.23267615 341.81862576 65.8425293 338.14717102 C70.68893334 333.21806384 75.57250548 328.45744891 80.81518555 323.95185852 C84.66250986 320.52707271 88.23267615 316.81862576 91.8425293 313.14717102 C96.68893334 308.21806384 101.57250548 303.45744891 106.81518555 298.95185852 C110.66250986 295.52707271 114.23267615 291.81862576 117.8425293 288.14717102 C122.68893334 283.21806384 127.57250548 278.45744891 132.81518555 273.95185852 C136.66250986 270.52707271 140.23267615 266.81862576 143.8425293 263.14717102 C148.77524176 258.13028258 153.75013834 253.2793536 159.08325195 248.68867493 C168.68263473 240.27755879 174.92524062 230.86898068 176.8425293 218.14717102 C177.13471235 213.04463505 177.12679932 207.94895773 177.1171875 202.84028625 C177.12154129 201.30515802 177.12672666 199.77003195 177.13267517 198.23490906 C177.14600146 194.08831815 177.14665121 189.94181873 177.14411187 185.7952106 C177.14303829 182.32598745 177.14793515 178.85678252 177.15271729 175.38756329 C177.16378941 167.20170563 177.16426216 159.01589387 177.15820312 150.83003235 C177.15215816 142.39856208 177.16449285 133.96725846 177.18577319 125.53581661 C177.20340679 118.28120693 177.20938797 111.02665023 177.20613545 103.77201992 C177.20432601 99.44586177 177.20692532 95.11982265 177.22084999 90.79368401 C177.2334532 86.72650773 177.23146082 82.6595911 177.2184391 78.59241867 C177.21607958 77.10415495 177.21878558 75.61587281 177.22706223 74.12763023 C177.27377372 65.07225156 177.04290588 58.17633423 172.0925293 50.39717102 C166.36911474 44.67375646 160.3900867 43.0273915 152.48193359 43.00672913 C151.17275467 43.00101898 149.86357574 42.99530884 148.51472473 42.98942566 C147.06539927 42.98818034 145.61607369 42.98705524 144.16674805 42.98603821 C142.63884868 42.98140821 141.11095046 42.97638331 139.58305359 42.97099304 C135.4317911 42.95787944 131.28054479 42.95142543 127.12926483 42.94698238 C124.53207686 42.94404833 121.93489328 42.93994277 119.33770752 42.93547821 C111.20158026 42.92180238 103.06546306 42.91213768 94.9293251 42.90827632 C85.55725759 42.90380341 76.1853365 42.8862916 66.81331348 42.85727572 C59.55790061 42.8355982 52.30252874 42.82556871 45.04708385 42.8242352 C40.71959488 42.82319097 36.39224351 42.81736571 32.06478882 42.79941559 C27.98701154 42.78283094 23.90947374 42.78082931 19.83167458 42.7895546 C18.34347704 42.7903196 16.85526609 42.78605392 15.36710167 42.77609634 C-7.57576478 42.63171677 -21.10574384 51.13768513 -35.78833008 68.0226593 Z " fill="#000000" transform="translate(292.157470703125,-0.1471710205078125)"/>
<path d="M0 0 C5.75937178 5.299148 7.31516297 11.83214831 8.25 19.375 C8.79188965 19.10349121 9.3337793 18.83198242 9.89208984 18.55224609 C34.80017834 6.15851834 58.13238915 -0.90606516 86.125 -1.125 C87.16578705 -1.14080109 87.16578705 -1.14080109 88.2276001 -1.15692139 C97.54956866 -1.26667617 104.26709265 -0.9915547 111.4921875 5.33984375 C112.03101563 5.99082031 112.56984375 6.64179688 113.125 7.3125 C113.67929687 7.96089844 114.23359375 8.60929688 114.8046875 9.27734375 C119.26551026 15.75156489 119.15461109 22.77465147 118.25 30.375 C116.73766272 34.67292911 114.54143086 38.44752635 112.25 42.375 C102.14461832 60.43989165 98.17966339 79.28856259 94.25 99.4375 C89.39112961 124.33178269 83.98372318 149.40457988 67.25 169.375 C66.55261719 170.22191406 65.85523438 171.06882812 65.13671875 171.94140625 C48.2174106 191.62550366 23.16282635 205.48671441 -2.75 208.375 C-31.70194864 209.90573749 -59.0793504 202.96767835 -81.23022461 183.59619141 C-93.75669111 172.24487815 -103.56919263 159.1831616 -109.75 143.375 C-110.10707031 142.4675 -110.46414062 141.56 -110.83203125 140.625 C-120.88494134 112.91360739 -119.04243203 82.22405464 -106.82421875 55.59375 C-104.23307521 50.20321398 -101.29381036 45.19677737 -97.75 40.375 C-97.14671875 39.55128906 -96.5434375 38.72757813 -95.921875 37.87890625 C-80.1880035 17.38010212 -57.46457816 0.1554139 -31.8359375 -5.23828125 C-20.56583153 -6.65061099 -9.40233584 -7.08125712 0 0 Z " fill="#000000" transform="translate(233.75,186.625)"/>
<path d="M0 0 C2.04797755 1.44951732 3.92445633 2.98889561 5.80859375 4.64453125 C6.41445313 5.14597656 7.0203125 5.64742187 7.64453125 6.1640625 C14.13226498 11.98602443 19.21603742 20.86977341 19.9855957 29.66821289 C20.4385966 45.46188155 18.53636141 56.31943053 7.80859375 68.64453125 C-0.00500184 76.34417857 -11.4242729 80.69944826 -22.31640625 80.89453125 C-35.18976032 80.75592178 -45.6170595 75.82782551 -54.859375 67.125 C-62.77208753 58.70863073 -66.17457761 48.54301884 -66.56640625 37.08203125 C-66.16913797 25.07762008 -61.40785641 14.38927978 -53.34375 5.56640625 C-39.09514765 -7.15648369 -16.47762547 -10.19204285 0 0 Z " fill="#000000" transform="translate(428.19140625,69.35546875)"/>
</svg>
