<?xml version="1.0" encoding="UTF-8"?>
<svg version="1.1" xmlns="http://www.w3.org/2000/svg" width="512" height="512">
<path d="M0 0 C1.01790619 0.00215515 2.03581238 0.0043103 3.08456421 0.00653076 C17.69363523 0.05620146 32.02575853 0.30709809 46.375 3.3125 C47.34985352 3.51117676 48.32470703 3.70985352 49.32910156 3.91455078 C88.38660539 12.08468046 124.82400319 27.71035417 156.375 52.3125 C157.25929688 52.98539063 158.14359375 53.65828125 159.0546875 54.3515625 C174.64487101 66.4551235 189.25704477 80.75418497 201.375 96.3125 C202.52162109 97.71628906 202.52162109 97.71628906 203.69140625 99.1484375 C238.32002637 142.39252491 256.81365997 197.89189907 256.69067383 253.03979492 C256.6875221 255.97938487 256.71104926 258.9179558 256.73632812 261.85742188 C256.78098737 275.23056192 255.57551542 288.12666711 253.375 301.3125 C253.09281616 303.01805054 253.09281616 303.01805054 252.80493164 304.75805664 C245.77946967 343.86954746 228.79665906 381.05202178 204.375 412.3125 C203.61574219 413.28445313 202.85648437 414.25640625 202.07421875 415.2578125 C189.73986402 430.63741644 175.93895499 445.19015196 160.375 457.3125 C159.43914062 458.07691406 158.50328125 458.84132813 157.5390625 459.62890625 C125.58628299 485.2157721 86.41988322 501.72551276 46.375 509.3125 C45.56562988 509.47621094 44.75625977 509.63992188 43.92236328 509.80859375 C13.88110013 515.67977137 -20.7615176 514.58512909 -50.625 508.3125 C-52.14794678 507.99901611 -52.14794678 507.99901611 -53.70166016 507.67919922 C-90.73237024 499.81098372 -125.85479285 483.74003986 -155.625 460.3125 C-156.594375 459.55453125 -157.56375 458.7965625 -158.5625 458.015625 C-173.94874823 445.68914204 -188.50293448 431.87609226 -200.625 416.3125 C-201.77162109 414.90871094 -201.77162109 414.90871094 -202.94140625 413.4765625 C-228.5282721 381.52378299 -245.03801276 342.35738322 -252.625 302.3125 C-252.78871094 301.50312988 -252.95242187 300.69375977 -253.12109375 299.85986328 C-258.59069558 271.87335724 -258.46977511 238.21828161 -252.625 210.3125 C-252.42632324 209.33764648 -252.22764648 208.36279297 -252.02294922 207.35839844 C-243.85281954 168.30089461 -228.22714583 131.86349681 -203.625 100.3125 C-202.95210937 99.42820312 -202.27921875 98.54390625 -201.5859375 97.6328125 C-189.4823765 82.04262899 -175.18331503 67.43045523 -159.625 55.3125 C-158.68914062 54.54808594 -157.75328125 53.78367188 -156.7890625 52.99609375 C-112.48174637 17.51607068 -56.33754016 -0.21452306 0 0 Z M-23.625 134.3125 C-37.93643375 151.79759897 -39.09046768 170.56196449 -38.8125 192.1875 C-38.79741827 194.24347972 -38.78373607 196.29947021 -38.77148438 198.35546875 C-38.74135041 203.3416361 -38.68258257 208.32627616 -38.625 213.3125 C-48.525 213.3125 -58.425 213.3125 -68.625 213.3125 C-68.625 230.4725 -68.625 247.6325 -68.625 265.3125 C-58.725 265.3125 -48.825 265.3125 -38.625 265.3125 C-38.625 314.1525 -38.625 362.9925 -38.625 413.3125 C-18.495 413.3125 1.635 413.3125 22.375 413.3125 C22.375 364.4725 22.375 315.6325 22.375 265.3125 C35.905 265.3125 49.435 265.3125 63.375 265.3125 C64.79967508 256.05211197 66.04409376 246.92557753 67 237.625 C67.1340625 236.38427734 67.268125 235.14355469 67.40625 233.86523438 C67.53257812 232.64771484 67.65890625 231.43019531 67.7890625 230.17578125 C67.9020166 229.09594971 68.0149707 228.01611816 68.13134766 226.90356445 C68.43807467 222.38287539 68.375 217.84358277 68.375 213.3125 C53.195 213.3125 38.015 213.3125 22.375 213.3125 C22.478125 207.145625 22.58125 200.97875 22.6875 194.625 C22.71239502 192.68665283 22.73729004 190.74830566 22.76293945 188.7512207 C22.79524166 187.20521654 22.82861712 185.65923426 22.86328125 184.11328125 C22.87264709 182.92091858 22.87264709 182.92091858 22.88220215 181.70446777 C22.99989031 177.15457215 23.28837097 173.90954651 26.375 170.3125 C30.59116791 167.79074255 35.17209679 167.96872721 39.95703125 167.8984375 C40.67934937 167.88079346 41.40166748 167.86314941 42.14587402 167.8449707 C44.82619581 167.78223528 47.50687959 167.7358201 50.1875 167.6875 C56.189375 167.56375 62.19125 167.44 68.375 167.3125 C68.375 150.8125 68.375 134.3125 68.375 117.3125 C60.6920889 117.22005856 53.01115166 117.14060104 45.328125 117.09277344 C42.7212872 117.07281001 40.11449329 117.04562958 37.5078125 117.01074219 C15.64833166 116.72576429 -7.63103387 116.86453695 -23.625 134.3125 Z " fill="#000000" transform="translate(255.625,-0.3125)"/>
</svg>
