<?xml version="1.0" encoding="UTF-8"?>
<svg version="1.1" xmlns="http://www.w3.org/2000/svg" width="512" height="512">
<path d="M0 0 C1.01790619 0.00215515 2.03581238 0.0043103 3.08456421 0.00653076 C17.69363523 0.05620146 32.02575853 0.30709809 46.375 3.3125 C47.34985352 3.51117676 48.32470703 3.70985352 49.32910156 3.91455078 C108.89482498 16.37463238 165.24866419 48.2648637 202.375 97.3125 C202.79023926 97.85132812 203.20547852 98.39015625 203.63330078 98.9453125 C228.13415115 130.81517547 244.62642134 167.36831241 252.6875 206.75 C252.83485596 207.46889404 252.98221191 208.18778809 253.1340332 208.9284668 C256.10789088 224.57475609 256.74800362 240.04818046 256.6875 255.9375 C256.68534485 256.95540619 256.6831897 257.97331238 256.68096924 259.02206421 C256.63129854 273.63113523 256.38040191 287.96325853 253.375 302.3125 C253.07698486 303.77478027 253.07698486 303.77478027 252.77294922 305.26660156 C242.52138226 354.27446698 220.18217348 398.27864199 185.375 434.3125 C184.77606934 434.93334473 184.17713867 435.55418945 183.56005859 436.19384766 C175.89623497 444.09500259 168.15501606 451.64016955 159.375 458.3125 C158.83472168 458.72918945 158.29444336 459.14587891 157.73779297 459.57519531 C125.8687531 484.07334707 89.31685217 500.56439938 49.9375 508.625 C49.21860596 508.77235596 48.49971191 508.91971191 47.7590332 509.0715332 C33.08339502 511.86090125 18.55831162 512.66142619 3.64770508 512.62817383 C0.70811513 512.6250221 -2.2304558 512.64854926 -5.16992188 512.67382812 C-18.54306192 512.71848737 -31.43916711 511.51301542 -44.625 509.3125 C-46.33055054 509.03031616 -46.33055054 509.03031616 -48.07055664 508.74243164 C-50.6662622 508.27617402 -53.23774939 507.7574418 -55.8125 507.1875 C-57.20142456 506.88054199 -57.20142456 506.88054199 -58.6184082 506.56738281 C-103.71300222 496.08183329 -144.40193368 473.34639441 -177.625 441.3125 C-178.58889648 440.38945068 -178.58889648 440.38945068 -179.57226562 439.44775391 C-188.74836539 430.62136647 -197.09816554 421.58141996 -204.625 411.3125 C-205.26211914 410.45857666 -205.26211914 410.45857666 -205.91210938 409.58740234 C-212.42768015 400.84658179 -218.26088547 391.80163672 -223.625 382.3125 C-224.0271875 381.60528809 -224.429375 380.89807617 -224.84375 380.16943359 C-237.8691741 357.03404164 -246.61801461 331.86287591 -251.9375 305.875 C-252.08485596 305.15610596 -252.23221191 304.43721191 -252.3840332 303.6965332 C-255.35789088 288.05024391 -255.99800362 272.57681954 -255.9375 256.6875 C-255.93534485 255.66959381 -255.9331897 254.65168762 -255.93096924 253.60293579 C-255.88129854 238.99386477 -255.63040191 224.66174147 -252.625 210.3125 C-252.42632324 209.33764648 -252.22764648 208.36279297 -252.02294922 207.35839844 C-241.90232806 158.9765226 -219.9858123 114.98821731 -185.625 79.3125 C-184.99287598 78.65314453 -184.36075195 77.99378906 -183.70947266 77.31445312 C-174.56502521 67.82619695 -165.26765991 59.0862956 -154.625 51.3125 C-153.47394983 50.45443848 -152.32290823 49.59636549 -151.171875 48.73828125 C-142.98224019 42.70072604 -134.47961724 37.31792698 -125.625 32.3125 C-124.91778809 31.9103125 -124.21057617 31.508125 -123.48193359 31.09375 C-100.34654164 18.0683259 -75.17537591 9.31948539 -49.1875 4 C-48.46860596 3.85264404 -47.74971191 3.70528809 -47.0090332 3.5534668 C-31.36274391 0.57960912 -15.88931954 -0.06050362 0 0 Z M-37.625 109.5625 C-39.31848068 109.58154892 -39.31848068 109.58154892 -41.0461731 109.60098267 C-72.09981764 109.98305055 -100.80837985 113.26031003 -123.625 136.3125 C-124.29273438 136.95832031 -124.96046875 137.60414063 -125.6484375 138.26953125 C-143.05581162 156.34641976 -145.55684242 183.24475004 -145.9765625 207.0234375 C-146.00021378 208.241521 -146.02386505 209.45960449 -146.04823303 210.71459961 C-146.12205717 214.70547433 -146.187505 218.69643649 -146.25 222.6875 C-146.26104893 223.37076607 -146.27209785 224.05403214 -146.2834816 224.75800323 C-146.63726772 246.74018766 -146.64899683 268.70519071 -146.3125 290.6875 C-146.29544006 291.9632489 -146.27838013 293.2389978 -146.26080322 294.55340576 C-145.85768508 323.06304783 -144.91168901 353.03607177 -124.625 375.3125 C-123.94824219 376.06917969 -123.27148438 376.82585937 -122.57421875 377.60546875 C-104.80709906 396.44555837 -79.6080926 401.76434863 -54.67041016 402.58032227 C-47.03323556 402.77733587 -39.39537933 402.88730693 -31.75624084 402.97390366 C-29.48064917 403.00022382 -27.20511175 403.02950908 -24.92956543 403.05947876 C-3.90674783 403.33135879 17.10254623 403.35749727 38.125 403 C39.24714905 402.9830307 40.3692981 402.9660614 41.52545166 402.94857788 C70.04913731 402.48765032 98.30333628 400.4487753 120.375 380.3125 C120.9834375 379.79558594 121.591875 379.27867187 122.21875 378.74609375 C138.93937749 363.58352473 144.9226478 339.99995922 146.375 318.3125 C146.50843402 314.1912529 146.52197288 310.07386745 146.52026367 305.95068359 C146.52362228 304.76694153 146.5269809 303.58319946 146.53044128 302.36358643 C146.53988132 298.47935922 146.54189099 294.59517545 146.54296875 290.7109375 C146.54439481 289.3607036 146.54599131 288.01046986 146.54775429 286.66023636 C146.55697838 279.58614937 146.56109305 272.51208109 146.56030273 265.43798828 C146.5597034 258.89256943 146.57023451 252.34723336 146.5860464 245.80183542 C146.59921925 240.14279215 146.60448256 234.4837756 146.60384732 228.82471716 C146.60359509 225.46242827 146.60724507 222.10027106 146.61702538 218.73798752 C146.69289101 189.96011581 145.87446232 159.82257056 125.375 137.3125 C124.69824219 136.55582031 124.02148438 135.79914063 123.32421875 135.01953125 C105.56149333 116.18410128 80.36874629 110.86249672 55.43652344 110.04467773 C47.81422175 109.84759111 40.19123225 109.73717112 32.56695557 109.65089417 C30.29224786 109.62476739 28.01758747 109.59593091 25.74291992 109.56652832 C4.617297 109.29886302 -16.49927289 109.2526339 -37.625 109.5625 Z " fill="#000000" transform="translate(255.625,-0.3125)"/>
<path d="M0 0 C2.22184256 -0.00067579 4.44368504 -0.00164809 6.66552734 -0.00289917 C11.2946036 -0.00436322 15.9236604 -0.00226353 20.55273438 0.00244141 C26.43921458 0.00813787 32.32564915 0.00485189 38.21212769 -0.00113106 C42.7919142 -0.00477179 47.37169019 -0.00358207 51.95147705 -0.00100327 C54.12005621 -0.00034368 56.28863638 -0.00112789 58.45721436 -0.00348282 C115.1783279 -0.05158464 115.1783279 -0.05158464 133.625 18.1328125 C151.46873761 38.1016077 148.78488857 68.57433731 148.7578125 93.5078125 C148.75848829 95.72965506 148.75946059 97.95149754 148.76071167 100.17333984 C148.76217572 104.8024161 148.76007603 109.4314729 148.75537109 114.06054688 C148.74967463 119.94702708 148.75296061 125.83346165 148.75894356 131.71994019 C148.76258429 136.2997267 148.76139457 140.87950269 148.75881577 145.45928955 C148.75815618 147.62786871 148.75894039 149.79644888 148.76129532 151.96502686 C148.80833845 207.4377434 148.80833845 207.4377434 131.625 226.1328125 C110.77221332 244.63756422 81.36195146 242.29398082 55.25 242.265625 C53.02815744 242.26630079 50.80631496 242.26727309 48.58447266 242.26852417 C43.9553964 242.26998822 39.3263396 242.26788853 34.69726562 242.26318359 C28.81078542 242.25748713 22.92435085 242.26077311 17.03787231 242.26675606 C12.4580858 242.27039679 7.87830981 242.26920707 3.29852295 242.26662827 C1.12994379 242.26596868 -1.03863638 242.26675289 -3.20721436 242.26910782 C-57.66311373 242.31528865 -57.66311373 242.31528865 -76.375 226.1328125 C-87.13696348 214.88443259 -91.39350023 200.66911604 -92.54589844 185.45703125 C-92.62560757 184.46853683 -92.7053167 183.48004242 -92.78744125 182.46159363 C-93.61694117 171.29346554 -93.66500246 160.13843808 -93.640625 148.9453125 C-93.64197861 146.70157835 -93.64392485 144.45784449 -93.64642334 142.21411133 C-93.64934198 137.55189167 -93.64518364 132.88974957 -93.63574219 128.22753906 C-93.62434979 122.3215975 -93.630927 116.41583788 -93.64288712 110.50990295 C-93.65019486 105.88869921 -93.64777743 101.26753694 -93.64263153 96.64633179 C-93.64131952 94.47154721 -93.64285419 92.29675857 -93.64759064 90.12197876 C-93.66662379 78.93398764 -93.42759175 67.82940501 -92.49902344 56.67578125 C-92.42367496 55.74630173 -92.34832649 54.8168222 -92.27069473 53.85917664 C-91.15621141 41.81175615 -88.04903581 30.70472813 -80.375 21.1328125 C-79.6325 20.1015625 -78.89 19.0703125 -78.125 18.0078125 C-58.26654315 -2.75330148 -26.37159123 -0.02863777 0 0 Z M93.8125 30.3203125 C90.26464236 34.88184375 88.58552149 38.88253747 88.6875 44.6953125 C90.17371863 50.14478081 91.96723274 54.40404188 96.875 57.5078125 C102.19068144 60.13157834 106.62685185 60.74241702 112.3125 59.0078125 C117.85186533 55.87232269 121.26027594 52.35684109 123.2421875 46.30859375 C124.0946519 41.46346443 122.90962004 37.29616285 120.42578125 33.11328125 C116.82877621 28.4322473 113.2602435 26.7032902 107.625 25.1328125 C102.2935301 25.1328125 97.98981491 27.07128979 93.8125 30.3203125 Z M-26.375 69.1328125 C-27.07625 69.80957031 -27.7775 70.48632812 -28.5 71.18359375 C-42.39328739 85.59245235 -47.90103014 105.31317977 -47.58984375 124.93359375 C-46.87215212 144.39150646 -37.775633 161.48526667 -24.375 175.1328125 C-23.69824219 175.8340625 -23.02148438 176.5353125 -22.32421875 177.2578125 C-7.91536015 191.15109989 11.80536727 196.65884264 31.42578125 196.34765625 C50.88369396 195.62996462 67.97745417 186.5334455 81.625 173.1328125 C82.32625 172.45605469 83.0275 171.77929688 83.75 171.08203125 C97.64328739 156.67317265 103.15103014 136.95244523 102.83984375 117.33203125 C102.12215212 97.87411854 93.025633 80.78035833 79.625 67.1328125 C78.94824219 66.4315625 78.27148438 65.7303125 77.57421875 65.0078125 C63.16536015 51.11452511 43.44463273 45.60678236 23.82421875 45.91796875 C4.36630604 46.63566038 -12.72745417 55.7321795 -26.375 69.1328125 Z " fill="#000000" transform="translate(228.375,134.8671875)"/>
<path d="M0 0 C2.24599495 1.43669429 4.36835124 2.95883208 6.48828125 4.57421875 C7.51953125 5.31671875 8.55078125 6.05921875 9.61328125 6.82421875 C18.009256 14.85515112 24.4036941 26.09403907 24.7265625 37.91796875 C25.03479302 52.19515087 23.34115622 62.9562726 14.48828125 74.57421875 C13.74578125 75.60546875 13.00328125 76.63671875 12.23828125 77.69921875 C4.20734888 86.0951935 -7.03153907 92.4896316 -18.85546875 92.8125 C-33.13265087 93.12073052 -43.8937726 91.42709372 -55.51171875 82.57421875 C-56.54296875 81.83171875 -57.57421875 81.08921875 -58.63671875 80.32421875 C-67.0326935 72.29328638 -73.4271316 61.05439843 -73.75 49.23046875 C-74.09621488 33.268876 -71.52255474 20.57278099 -60.48046875 8.3203125 C-44.65605391 -6.78741688 -19.24981736 -10.92719026 0 0 Z " fill="#000000" transform="translate(280.51171875,212.42578125)"/>
</svg>
