<?xml version="1.0" encoding="UTF-8"?>
<svg version="1.1" xmlns="http://www.w3.org/2000/svg" width="512" height="512">
<path d="M0 0 C0.99422974 0.00215515 1.98845947 0.0043103 3.01281738 0.00653076 C17.48109955 0.05686686 31.66189071 0.35398296 45.875 3.3125 C46.85130371 3.51117676 47.82760742 3.70985352 48.83349609 3.91455078 C97.21339984 14.03634541 141.2005519 35.95291013 176.875 70.3125 C177.8640332 71.26068604 177.8640332 71.26068604 178.87304688 72.22802734 C188.36130305 81.37247479 197.1012044 90.66984009 204.875 101.3125 C205.73306152 102.46355017 206.59113451 103.61459177 207.44921875 104.765625 C213.48736829 112.95680614 218.84595521 121.47054105 223.875 130.3125 C224.23948242 130.94430176 224.60396484 131.57610352 224.97949219 132.22705078 C246.4740329 169.78084014 256.35126533 212.44304389 256.1875 255.4375 C256.18476578 256.9278476 256.18476578 256.9278476 256.18197632 258.44830322 C256.13719978 272.942192 255.67610213 287.05386097 252.875 301.3125 C252.71402832 302.20807617 252.55305664 303.10365234 252.38720703 304.02636719 C244.49797508 347.63313051 224.80850867 388.77106217 195.875 422.3125 C195.24078125 423.05757813 194.6065625 423.80265625 193.953125 424.5703125 C182.14198485 438.07529833 169.39139772 450.74668743 154.875 461.3125 C153.72505169 462.16899066 152.57531411 463.02576433 151.42578125 463.8828125 C143.23410474 469.9234414 134.71854922 475.28255071 125.875 480.3125 C125.24319824 480.67698242 124.61139648 481.04146484 123.96044922 481.41699219 C97.93166464 496.31500327 68.51361377 505.96041257 38.875 510.3125 C37.67254639 510.48910156 36.47009277 510.66570312 35.23120117 510.84765625 C23.51493596 512.45161689 11.87584274 512.71324553 0.0625 512.6875 C-0.92433777 512.68662384 -1.91117554 512.68574768 -2.92791748 512.68484497 C-67.88219852 512.49532667 -130.29571624 487.41579016 -177.125 442.3125 C-177.78435547 441.68037598 -178.44371094 441.04825195 -179.12304688 440.39697266 C-188.61130305 431.25252521 -197.3512044 421.95515991 -205.125 411.3125 C-205.98306152 410.16144983 -206.84113451 409.01040823 -207.69921875 407.859375 C-213.73736829 399.66819386 -219.09595521 391.15445895 -224.125 382.3125 C-224.48948242 381.68069824 -224.85396484 381.04889648 -225.22949219 380.39794922 C-240.15973018 354.31285999 -249.63885054 324.97664886 -254.125 295.3125 C-254.38990234 293.62882324 -254.38990234 293.62882324 -254.66015625 291.91113281 C-256.3170586 280.29802257 -256.52373513 268.78070055 -256.5 257.0625 C-256.49945618 256.05048523 -256.49891235 255.03847046 -256.49835205 253.99578857 C-256.4576051 237.46132605 -255.53386907 221.54185136 -252.125 205.3125 C-251.91601074 204.29720215 -251.70702148 203.2819043 -251.49169922 202.23583984 C-242.71380189 160.92383315 -223.71113066 122.2919774 -196.125 90.3125 C-195.49078125 89.56742187 -194.8565625 88.82234375 -194.203125 88.0546875 C-182.39198485 74.54970167 -169.64139772 61.87831257 -155.125 51.3125 C-153.97505169 50.45600934 -152.82531411 49.59923567 -151.67578125 48.7421875 C-143.48410474 42.7015586 -134.96854922 37.34244929 -126.125 32.3125 C-125.49319824 31.94801758 -124.86139648 31.58353516 -124.21044922 31.20800781 C-98.17975097 16.30890142 -68.76448404 6.66904478 -39.125 2.3125 C-37.32675781 2.04651001 -37.32675781 2.04651001 -35.4921875 1.77514648 C-23.66616559 0.14661384 -11.92341476 -0.04652724 0 0 Z M-63.125 165.3125 C-64.74825195 165.43262451 -64.74825195 165.43262451 -66.40429688 165.55517578 C-84.18581016 166.88286962 -102.707722 168.826004 -115.34375 183.0612793 C-121.3627877 190.66839918 -123.14863047 198.87383453 -124.375 208.3125 C-124.61476562 209.97925781 -124.61476562 209.97925781 -124.859375 211.6796875 C-126.29456366 221.84560717 -127.28098379 231.86712467 -127.36328125 242.13671875 C-127.37293915 243.14942337 -127.38259705 244.16212799 -127.39254761 245.20552063 C-127.41727824 248.47038468 -127.42993173 251.73505249 -127.4375 255 C-127.44045074 256.11221924 -127.44340149 257.22443848 -127.44644165 258.37036133 C-128.53771316 297.89410065 -128.53771316 297.89410065 -112.4140625 332.15234375 C-102.93381629 341.29258113 -90.03475372 345.14715976 -77.171875 346.12890625 C-76.43157043 346.19029282 -75.69126587 346.25167938 -74.92852783 346.31492615 C-73.36569293 346.44316059 -71.80259299 346.56820146 -70.23925781 346.69018555 C-67.92185755 346.87133714 -65.60548586 347.06265918 -63.2890625 347.25585938 C-42.53821189 348.95621563 -21.88231479 349.51519707 -1.0625 349.5 C0.21136566 349.50006042 1.48523132 349.50012085 2.79769897 349.50018311 C23.23374334 349.486411 43.50481827 348.93262523 63.875 347.3125 C65.98041734 347.16592631 68.08588314 347.0200464 70.19140625 346.875 C86.62647296 345.64764706 103.43479692 342.37725021 115.03125 329.59985352 C120.78668694 322.45966699 122.85053269 314.5520723 124.0625 305.625 C124.22194092 304.50706055 124.38138184 303.38912109 124.5456543 302.23730469 C128.53649632 272.61901669 128.73720347 243.13176079 125 213.5 C124.83870605 212.21287109 124.67741211 210.92574219 124.51123047 209.59960938 C122.60195902 195.63655726 119.08371976 186.08776655 108.06640625 176.91015625 C96.66077776 168.59482282 83.51627644 166.87471269 69.81787109 165.859375 C67.53776318 165.69030022 65.25921204 165.5067955 62.98046875 165.3203125 C42.23929892 163.66014375 21.55469391 163.1091488 0.75 163.125 C-0.4740152 163.12493958 -1.6980304 163.12487915 -2.95913696 163.12481689 C-23.08695571 163.13891442 -43.06174081 163.70822871 -63.125 165.3125 Z " fill="#000000" transform="translate(256.125,-0.3125)"/>
<path d="M0 0 C3.95906724 0.98976681 6.32750815 2.2448804 9.77734375 4.359375 C10.33598114 4.69988388 10.89461853 5.04039276 11.47018433 5.39122009 C13.29575651 6.50578045 15.11662825 7.62777995 16.9375 8.75 C18.20962844 9.52881202 19.48201047 10.30720997 20.75463867 11.08520508 C28.95520106 16.10415304 37.13329958 21.15994248 45.30053711 26.23291016 C61.88991782 36.66482447 61.88991782 36.66482447 78.79882812 46.55615234 C79.52521484 47.03262207 80.25160156 47.5090918 81 48 C81 48.66 81 49.32 81 50 C79.49731445 51.12231445 79.49731445 51.12231445 77.36328125 52.36328125 C76.56946045 52.8310498 75.77563965 53.29881836 74.95776367 53.78076172 C74.08482666 54.28623535 73.21188965 54.79170898 72.3125 55.3125 C70.4601264 56.40357204 68.60858901 57.49606478 66.7578125 58.58984375 C65.80036133 59.15429199 64.84291016 59.71874023 63.85644531 60.30029297 C59.43058447 62.93386931 55.05855082 65.65173621 50.6875 68.375 C42.25158909 73.61997029 33.77633092 78.79708353 25.28344727 83.94921875 C18.68550408 87.95752166 12.12332854 92.01846074 5.60620117 96.15698242 C1.10490787 99 1.10490787 99 0 99 C0 66.33 0 33.66 0 0 Z " fill="#000000" transform="translate(225,207)"/>
</svg>
